<mxfile host="Electron" modified="2023-10-15T12:40:17.681Z" agent="Mozilla/5.0 (X11; Linux x86_64) AppleWebKit/537.36 (KHTML, like Gecko) draw.io/22.0.2 Chrome/114.0.5735.289 Electron/25.8.4 Safari/537.36" etag="DzEPoljgr1p-DRx4M0Zs" version="22.0.2" type="device">
  <diagram name="第 1 页" id="72OmI5acA52hv8ftlE3r">
    <mxGraphModel dx="1831" dy="598" grid="1" gridSize="10" guides="1" tooltips="1" connect="1" arrows="1" fold="1" page="1" pageScale="1" pageWidth="827" pageHeight="1169" math="0" shadow="0">
      <root>
        <mxCell id="0" />
        <mxCell id="1" parent="0" />
        <mxCell id="kRrdnNfyzmg29LNF8Zb7-5" style="edgeStyle=orthogonalEdgeStyle;rounded=0;orthogonalLoop=1;jettySize=auto;html=1;entryX=0.5;entryY=0;entryDx=0;entryDy=0;" edge="1" parent="1" source="kRrdnNfyzmg29LNF8Zb7-1" target="kRrdnNfyzmg29LNF8Zb7-4">
          <mxGeometry relative="1" as="geometry" />
        </mxCell>
        <mxCell id="kRrdnNfyzmg29LNF8Zb7-6" style="edgeStyle=orthogonalEdgeStyle;rounded=0;orthogonalLoop=1;jettySize=auto;html=1;entryX=0.5;entryY=0;entryDx=0;entryDy=0;" edge="1" parent="1" source="kRrdnNfyzmg29LNF8Zb7-1" target="kRrdnNfyzmg29LNF8Zb7-3">
          <mxGeometry relative="1" as="geometry" />
        </mxCell>
        <mxCell id="kRrdnNfyzmg29LNF8Zb7-11" style="edgeStyle=orthogonalEdgeStyle;rounded=0;orthogonalLoop=1;jettySize=auto;html=1;entryX=0.5;entryY=0;entryDx=0;entryDy=0;" edge="1" parent="1" source="kRrdnNfyzmg29LNF8Zb7-1" target="kRrdnNfyzmg29LNF8Zb7-10">
          <mxGeometry relative="1" as="geometry" />
        </mxCell>
        <mxCell id="kRrdnNfyzmg29LNF8Zb7-1" value="Prompt&lt;br&gt;" style="rounded=0;whiteSpace=wrap;html=1;" vertex="1" parent="1">
          <mxGeometry x="120" y="220" width="120" height="60" as="geometry" />
        </mxCell>
        <mxCell id="kRrdnNfyzmg29LNF8Zb7-9" style="edgeStyle=orthogonalEdgeStyle;rounded=0;orthogonalLoop=1;jettySize=auto;html=1;" edge="1" parent="1" source="kRrdnNfyzmg29LNF8Zb7-3" target="kRrdnNfyzmg29LNF8Zb7-7">
          <mxGeometry relative="1" as="geometry" />
        </mxCell>
        <mxCell id="kRrdnNfyzmg29LNF8Zb7-3" value="Directive&lt;br&gt;What is user&#39;s intention?" style="rounded=0;whiteSpace=wrap;html=1;" vertex="1" parent="1">
          <mxGeometry x="120" y="320" width="120" height="60" as="geometry" />
        </mxCell>
        <mxCell id="kRrdnNfyzmg29LNF8Zb7-27" value="" style="edgeStyle=orthogonalEdgeStyle;rounded=0;orthogonalLoop=1;jettySize=auto;html=1;" edge="1" parent="1" source="kRrdnNfyzmg29LNF8Zb7-4" target="kRrdnNfyzmg29LNF8Zb7-12">
          <mxGeometry relative="1" as="geometry" />
        </mxCell>
        <mxCell id="kRrdnNfyzmg29LNF8Zb7-4" value="Query&lt;br&gt;What is user&#39;s question?" style="rounded=0;whiteSpace=wrap;html=1;" vertex="1" parent="1">
          <mxGeometry x="280" y="320" width="120" height="60" as="geometry" />
        </mxCell>
        <mxCell id="kRrdnNfyzmg29LNF8Zb7-8" style="edgeStyle=orthogonalEdgeStyle;rounded=0;orthogonalLoop=1;jettySize=auto;html=1;entryX=0;entryY=0.5;entryDx=0;entryDy=0;fillColor=#f8cecc;strokeColor=#b85450;" edge="1" parent="1" source="kRrdnNfyzmg29LNF8Zb7-7" target="kRrdnNfyzmg29LNF8Zb7-4">
          <mxGeometry relative="1" as="geometry" />
        </mxCell>
        <mxCell id="kRrdnNfyzmg29LNF8Zb7-7" value="What do I need to know?" style="rounded=0;whiteSpace=wrap;html=1;" vertex="1" parent="1">
          <mxGeometry x="120" y="420" width="120" height="60" as="geometry" />
        </mxCell>
        <mxCell id="kRrdnNfyzmg29LNF8Zb7-14" style="edgeStyle=orthogonalEdgeStyle;rounded=0;orthogonalLoop=1;jettySize=auto;html=1;entryX=0.5;entryY=0;entryDx=0;entryDy=0;" edge="1" parent="1" source="kRrdnNfyzmg29LNF8Zb7-10">
          <mxGeometry relative="1" as="geometry">
            <mxPoint x="20" y="420" as="targetPoint" />
          </mxGeometry>
        </mxCell>
        <mxCell id="kRrdnNfyzmg29LNF8Zb7-10" value="Factors&lt;br&gt;What is the user telling me?" style="rounded=0;whiteSpace=wrap;html=1;" vertex="1" parent="1">
          <mxGeometry x="-40" y="320" width="120" height="60" as="geometry" />
        </mxCell>
        <mxCell id="kRrdnNfyzmg29LNF8Zb7-12" value="Search vector database" style="rounded=0;whiteSpace=wrap;html=1;" vertex="1" parent="1">
          <mxGeometry x="280" y="420" width="120" height="60" as="geometry" />
        </mxCell>
        <mxCell id="kRrdnNfyzmg29LNF8Zb7-18" style="edgeStyle=orthogonalEdgeStyle;rounded=0;orthogonalLoop=1;jettySize=auto;html=1;entryX=0.5;entryY=1;entryDx=0;entryDy=0;" edge="1" parent="1" source="kRrdnNfyzmg29LNF8Zb7-16" target="kRrdnNfyzmg29LNF8Zb7-17">
          <mxGeometry relative="1" as="geometry" />
        </mxCell>
        <mxCell id="kRrdnNfyzmg29LNF8Zb7-19" value="Yes" style="edgeLabel;html=1;align=center;verticalAlign=middle;resizable=0;points=[];" vertex="1" connectable="0" parent="kRrdnNfyzmg29LNF8Zb7-18">
          <mxGeometry x="-0.0667" y="1" relative="1" as="geometry">
            <mxPoint as="offset" />
          </mxGeometry>
        </mxCell>
        <mxCell id="kRrdnNfyzmg29LNF8Zb7-25" style="edgeStyle=orthogonalEdgeStyle;rounded=0;orthogonalLoop=1;jettySize=auto;html=1;entryX=1;entryY=0.5;entryDx=0;entryDy=0;" edge="1" parent="1" source="kRrdnNfyzmg29LNF8Zb7-16" target="kRrdnNfyzmg29LNF8Zb7-20">
          <mxGeometry relative="1" as="geometry">
            <mxPoint x="90" y="650" as="targetPoint" />
            <Array as="points">
              <mxPoint x="100" y="450" />
              <mxPoint x="100" y="650" />
            </Array>
          </mxGeometry>
        </mxCell>
        <mxCell id="kRrdnNfyzmg29LNF8Zb7-26" value="No" style="edgeLabel;html=1;align=center;verticalAlign=middle;resizable=0;points=[];" vertex="1" connectable="0" parent="kRrdnNfyzmg29LNF8Zb7-25">
          <mxGeometry x="-0.2416" y="2" relative="1" as="geometry">
            <mxPoint as="offset" />
          </mxGeometry>
        </mxCell>
        <mxCell id="kRrdnNfyzmg29LNF8Zb7-16" value="Immediately relevant?" style="rhombus;whiteSpace=wrap;html=1;" vertex="1" parent="1">
          <mxGeometry x="-40" y="420" width="120" height="60" as="geometry" />
        </mxCell>
        <mxCell id="kRrdnNfyzmg29LNF8Zb7-31" style="edgeStyle=orthogonalEdgeStyle;rounded=0;orthogonalLoop=1;jettySize=auto;html=1;entryX=0.5;entryY=0;entryDx=0;entryDy=0;" edge="1" parent="1" source="kRrdnNfyzmg29LNF8Zb7-17" target="kRrdnNfyzmg29LNF8Zb7-20">
          <mxGeometry relative="1" as="geometry" />
        </mxCell>
        <mxCell id="kRrdnNfyzmg29LNF8Zb7-17" value="Add to context" style="whiteSpace=wrap;html=1;direction=west;" vertex="1" parent="1">
          <mxGeometry x="-40" y="525" width="120" height="60" as="geometry" />
        </mxCell>
        <mxCell id="kRrdnNfyzmg29LNF8Zb7-20" value="Add to vector database" style="rounded=0;whiteSpace=wrap;html=1;" vertex="1" parent="1">
          <mxGeometry x="-40" y="620" width="120" height="60" as="geometry" />
        </mxCell>
        <mxCell id="kRrdnNfyzmg29LNF8Zb7-28" value=")" style="rounded=0;whiteSpace=wrap;html=1;" vertex="1" parent="1">
          <mxGeometry x="160" y="680" width="120" height="60" as="geometry" />
        </mxCell>
        <mxCell id="kRrdnNfyzmg29LNF8Zb7-29" value="Queue" style="rounded=0;whiteSpace=wrap;html=1;" vertex="1" parent="1">
          <mxGeometry x="440" y="220" width="120" height="60" as="geometry" />
        </mxCell>
        <mxCell id="kRrdnNfyzmg29LNF8Zb7-30" value="Does it answer the question?" style="rhombus;whiteSpace=wrap;html=1;" vertex="1" parent="1">
          <mxGeometry x="280" y="520" width="120" height="60" as="geometry" />
        </mxCell>
      </root>
    </mxGraphModel>
  </diagram>
</mxfile>
